<svg width="400" height="300" viewBox="0 0 400 300" fill="none" xmlns="http://www.w3.org/2000/svg">
  <rect width="400" height="300" fill="#FEF2F2"/>
  <path d="M100 120 C100 80, 140 80, 180 120 C220 80, 260 80, 300 120 C300 160, 260 200, 220 160 C180 200, 140 200, 100 160 Z" fill="#EF4444" opacity="0.2"/>
  <path d="M100 120 C100 80, 140 80, 180 120 C220 80, 260 80, 300 120 C300 160, 260 200, 220 160 C180 200, 140 200, 100 160 Z" stroke="#EF4444" stroke-width="4" fill="none"/>
  <circle cx="150" cy="140" r="8" fill="#EF4444"/>
  <circle cx="250" cy="140" r="8" fill="#EF4444"/>
  <rect x="180" y="130" width="40" height="20" rx="10" fill="#EF4444"/>
  <circle cx="200" cy="140" r="6" fill="white"/>
  <path d="M195 140 L200 145 L205 135" stroke="#EF4444" stroke-width="2" stroke-linecap="round" stroke-linejoin="round" fill="none"/>
  <rect x="120" y="180" width="160" height="8" rx="4" fill="#EF4444"/>
  <rect x="140" y="200" width="120" height="6" rx="3" fill="#EF4444" opacity="0.7"/>
</svg>