<svg width="400" height="300" viewBox="0 0 400 300" fill="none" xmlns="http://www.w3.org/2000/svg">
  <rect width="400" height="300" fill="#FDF2F8"/>
  <path d="M200 100 C200 80, 220 60, 240 80 C260 60, 280 80, 280 100 C280 120, 260 140, 240 120 C220 140, 200 120, 200 100 Z" fill="#EC4899" opacity="0.2"/>
  <path d="M200 100 C200 80, 220 60, 240 80 C260 60, 280 80, 280 100 C280 120, 260 140, 240 120 C220 140, 200 120, 200 100 Z" stroke="#EC4899" stroke-width="3" fill="none"/>
  <circle cx="210" cy="100" r="4" fill="#EC4899"/>
  <circle cx="270" cy="100" r="4" fill="#EC4899"/>
  <rect x="220" y="140" width="40" height="80" rx="20" fill="white" stroke="#EC4899" stroke-width="2"/>
  <rect x="225" y="150" width="30" height="8" rx="4" fill="#EC4899"/>
  <rect x="230" y="165" width="20" height="6" rx="3" fill="#EC4899" opacity="0.7"/>
  <rect x="235" y="180" width="15" height="6" rx="3" fill="#EC4899" opacity="0.5"/>
  <circle cx="140" cy="180" r="8" fill="#EC4899" opacity="0.6"/>
  <circle cx="260" cy="180" r="8" fill="#EC4899" opacity="0.6"/>
</svg>