<svg width="600" height="800" xmlns="http://www.w3.org/2000/svg">
    <defs>
      <linearGradient id="bg" x1="0%" y1="0%" x2="100%" y2="100%">
        <stop offset="0%" style="stop-color:#f0f9ff;stop-opacity:1" />
        <stop offset="100%" style="stop-color:#e0f2fe;stop-opacity:1" />
      </linearGradient>
      <linearGradient id="icon" x1="0%" y1="0%" x2="100%" y2="100%">
        <stop offset="0%" style="stop-color:#0ea5e9;stop-opacity:1" />
        <stop offset="100%" style="stop-color:#0284c7;stop-opacity:1" />
      </linearGradient>
    </defs>
    <rect width="100%" height="100%" fill="url(#bg)"/>
    <circle cx="50%" cy="35%" r="80" fill="url(#icon)" opacity="0.1"/>
    <g transform="translate(50%, 50%)">
      <!-- Doctor Icon -->
      <g transform="translate(-40, -40)">
        <path d="M20 10h-6V4a2 2 0 0 0-2-2h-4a2 2 0 0 0-2 2v6H0a2 2 0 0 0-2 2v4a2 2 0 0 0 2 2h6v6a2 2 0 0 0 2 2h4a2 2 0 0 0 2-2v-6h6a2 2 0 0 0 2-2v-4a2 2 0 0 0-2-2z" 
              fill="url(#icon)" opacity="0.3"/>
        <circle cx="40" cy="25" r="15" fill="url(#icon)" opacity="0.2"/>
        <rect x="30" y="35" width="20" height="25" rx="2" fill="url(#icon)" opacity="0.2"/>
      </g>
    </g>
    <text x="50%" y="85%" font-family="Arial, sans-serif" font-size="16" fill="#0369a1" text-anchor="middle" dy=".3em">Doctor Photo</text>
  </svg>